<?xml version="1.0" encoding="UTF-8" standalone="no"?>
<!-- Created with Inkscape (http://www.inkscape.org/) -->

<svg
   xmlns:dc="http://purl.org/dc/elements/1.1/"
   xmlns:cc="http://creativecommons.org/ns#"
   xmlns:rdf="http://www.w3.org/1999/02/22-rdf-syntax-ns#"
   xmlns:svg="http://www.w3.org/2000/svg"
   xmlns="http://www.w3.org/2000/svg"
   xmlns:sodipodi="http://sodipodi.sourceforge.net/DTD/sodipodi-0.dtd"
   xmlns:inkscape="http://www.inkscape.org/namespaces/inkscape"
   version="1.1"
   id="svg4485"
   xml:space="preserve"
   width="287"
   height="350"
   viewBox="0 0 287 350"
   sodipodi:docname="logo.svg"
   inkscape:version="0.92.1 r15371"><metadata
     id="metadata4491"><rdf:RDF><cc:Work
         rdf:about=""><dc:format>image/svg+xml</dc:format><dc:type
           rdf:resource="http://purl.org/dc/dcmitype/StillImage" /><dc:title></dc:title></cc:Work></rdf:RDF></metadata><defs
     id="defs4489"><clipPath
       clipPathUnits="userSpaceOnUse"
       id="clipPath4503"><path
         d="M 0,2834.65 H 2834.65 V 0 H 0 Z"
         id="path4501"
         inkscape:connector-curvature="0" /></clipPath></defs><sodipodi:namedview
     pagecolor="#ffffff"
     bordercolor="#666666"
     borderopacity="1"
     objecttolerance="10"
     gridtolerance="10"
     guidetolerance="10"
     inkscape:pageopacity="0"
     inkscape:pageshadow="2"
     inkscape:window-width="1600"
     inkscape:window-height="821"
     id="namedview4487"
     showgrid="false"
     inkscape:zoom="1.8798641"
     inkscape:cx="111.29525"
     inkscape:cy="207.14695"
     inkscape:window-x="-9"
     inkscape:window-y="-9"
     inkscape:window-maximized="1"
     inkscape:current-layer="g4493" /><g
     id="g4493"
     inkscape:groupmode="layer"
     inkscape:label="logo"
     transform="matrix(1.3333333,0,0,-1.3333333,0,350.0001)"><path
       d="m 1529.869,1095.577 h -228.101 v 283.464 h 228.101 z"
       style="fill:#ffffff;fill-opacity:1;fill-rule:nonzero;stroke:none"
       id="path4495"
       inkscape:connector-curvature="0" /><path
       inkscape:connector-curvature="0"
       id="path4507"
       style="fill:#b9182e;fill-opacity:1;fill-rule:nonzero;stroke:none"
       d="m 92.769003,212.67308 c 1.988,0.499 3.983,0.894 5.98,1.187 l 0.02,10e-4 c 0,0.001 0.01,0 0.01,0 0.24,0.047 0.396,0.281 0.348,0.521 0,0.016 -0.01,0.029 -0.01,0.044 v -0.01 l -10.788,36.82 -0.088,-0.017 3.994,-38.166 v -0.01 c 0,-0.013 0,-0.024 0.01,-0.036 0.049,-0.24 0.282,-0.395 0.522,-0.347 z m -11.239,-4.029 c 1.852,0.877 3.733,1.652 5.634,2.33 h 0.018 c 0,0 0.01,0 0.011,0 0.225,0.093 0.333,0.352 0.24,0.579 -0.01,0.014 -0.013,0.027 -0.019,0.041 l 0.001,-0.01 -17.765,34.008 -0.083,-0.036 11.364,-36.652 v -0.01 c 0,-0.012 0.01,-0.023 0.011,-0.035 0.094,-0.225 0.354,-0.332 0.579,-0.238 z m -10.237,-6.146 c 1.646,1.222 3.338,2.35 5.071,3.384 l 0.017,0.01 c 0,0 0.01,0 0.01,0.01 0.203,0.135 0.257,0.411 0.122,0.615 -0.01,0.013 -0.018,0.024 -0.027,0.036 v 0 l -24.059,29.89 -0.075,-0.051 18.297,-33.731 0.01,-0.01 c 0.01,-0.011 0.012,-0.02 0.018,-0.032 0.136,-0.202 0.411,-0.256 0.615,-0.121 z m -15.946,-17.62 c 1.052,1.759 2.185,3.448 3.389,5.067 l 0.012,0.015 c 0,0 0.01,0.01 0.01,0.01 0.137,0.203 0.081,0.478 -0.122,0.615 -0.012,0.01 -0.026,0.016 -0.038,0.024 v 0 l -33.666,18.406 -0.05,-0.075 29.813,-24.161 h 0.01 c 0.01,-0.01 0.019,-0.015 0.028,-0.023 0.204,-0.135 0.479,-0.08 0.615,0.123 z m -5.097,-10.797 c 0.689,1.93 1.47,3.808 2.336,5.631 l 0.01,0.018 c 0,0 0,0.01 0.01,0.01 0.093,0.226 -0.014,0.486 -0.24,0.58 -0.014,0.01 -0.029,0.01 -0.043,0.015 v 0 l -36.61,11.485 -0.034,-0.084 33.954,-17.88 h 0.01 c 0.01,-0.01 0.021,-0.01 0.032,-0.016 0.225,-0.093 0.484,0.015 0.578,0.24 z m -2.893,-11.584 c 0.3,2.028 0.7,4.022 1.193,5.979 l 0.01,0.018 c 0,0 0,0.01 0,0.011 0.047,0.239 -0.109,0.473 -0.349,0.521 -0.015,0 -0.03,0 -0.045,0.01 v 0 l -38.147,4.121 -0.017,-0.088 36.791,-10.912 h 0.01 c 0.012,0 0.023,-0.01 0.035,-0.01 0.239,-0.047 0.472,0.108 0.52,0.348 z m 1.185,-23.735 c -0.499,1.988 -0.893,3.983 -1.187,5.979 v 0.02 c 0,0 0,0.01 0,0.011 -0.047,0.24 -0.281,0.395 -0.521,0.348 -0.015,0 -0.029,-0.01 -0.044,-0.01 h 0.01 l -36.8190003,-10.792 0.018,-0.088 38.1650003,3.998 h 0.01 c 0.012,0.001 0.023,0 0.036,0 0.239,0.048 0.395,0.282 0.347,0.521 z m 4.031,-11.238 c -0.877,1.851 -1.653,3.732 -2.33,5.632 l -0.01,0.019 c -10e-4,0 0,0.01 0,0.011 -0.093,0.226 -0.353,0.333 -0.579,0.24 -0.014,-0.01 -0.028,-0.013 -0.041,-0.02 h 0.01 l -34.007,-17.768 0.035,-0.083 36.652,11.367 h 0.01 c 0.011,0 0.022,0.01 0.034,0.012 0.225,0.094 0.332,0.353 0.239,0.579 z m 6.147,-10.237 c -1.222,1.646 -2.35,3.338 -3.385,5.071 l -0.01,0.017 c 0,0 0,0.01 -0.01,0.01 -0.136,0.204 -0.411,0.259 -0.615,0.122 -0.013,-0.01 -0.024,-0.018 -0.036,-0.026 v 0 l -29.886,-24.062001 0.05,-0.075 33.73,18.301001 v 0 c 0.011,0.01 0.021,0.011 0.031,0.017 0.203,0.137 0.257,0.411 0.122,0.614 z m 17.622,-15.944 c -1.759,1.053 -3.448,2.184 -5.068,3.389 l -0.015,0.012 c 0,0 -0.01,0 -0.01,0.01 -0.203,0.137 -0.478,0.082 -0.614,-0.122 -0.01,-0.013 -0.016,-0.025 -0.024,-0.038 v 0 l -18.403,-33.668001 0.076,-0.05 24.157,29.817001 v 0.01 c 0.01,0.01 0.014,0.019 0.022,0.029 0.134,0.203 0.08,0.478 -0.123,0.614 z m 10.798,-5.096001 c -1.931,0.69 -3.809,1.47 -5.632,2.335 l -0.017,0.01 c 0,0.001 -0.01,0 -0.01,0 -0.226,0.095 -0.485,-0.014 -0.579,-0.239 -0.01,-0.015 -0.01,-0.029 -0.015,-0.042 v 0 l -11.48,-36.612 0.084,-0.034 17.876,33.956 v 0.01 c 0.01,0.011 0.01,0.021 0.016,0.032 0.092,0.226 -0.015,0.484 -0.241,0.578 z m 11.584,-2.89 c -2.027,0.298 -4.022,0.698 -5.979,1.19 l -0.018,0.01 c 0,0.001 -0.01,0 -0.011,0 -0.24,0.048 -0.473,-0.109 -0.521,-0.348 0,-0.014 -0.01,-0.03 -0.01,-0.045 l 0.001,0.01 -4.116,-38.147 0.089,-0.017 10.908,36.791 v 0.01 c 0,0.012 0.01,0.022 0.01,0.034 0.047,0.24 -0.109,0.473 -0.349,0.521 z m 23.734997,1.186 c -1.987,-0.499 -3.982,-0.893 -5.981,-1.187 h -0.018 c 0,0 -0.01,-10e-4 -0.011,-10e-4 -0.24,-0.048 -0.395,-0.282 -0.348,-0.522 0,-0.014 0.01,-0.029 0.01,-0.043 v 0.01 l 10.796,-36.818 0.089,0.017 -4.003,38.165 v 0.01 c 0,0.013 0,0.024 -0.01,0.036 -0.048,0.24 -0.281,0.395 -0.52,0.347 z m 11.237,4.033 c -1.851,-0.878 -3.731,-1.654 -5.633,-2.332 l -0.018,-0.01 c 0,0 -0.01,0 -0.01,0 -0.226,-0.093 -0.333,-0.352 -0.24,-0.579 0.01,-0.013 0.013,-0.027 0.019,-0.04 v 0 l 17.773,-34.004 0.083,0.036 -11.372,36.65 v 0.01 c 0,0.011 -0.01,0.022 -0.012,0.034 -0.094,0.226 -0.352,0.332 -0.579,0.239 z m 10.236,6.148001 c -1.645,-1.222 -3.336,-2.351 -5.07,-3.386 l -0.016,-0.01 c 0,0 -0.01,0 -0.01,-0.01 -0.203,-0.135 -0.258,-0.411 -0.122,-0.614 0.01,-0.013 0.017,-0.024 0.026,-0.036 v 0 l 24.065,-29.884001 0.075,0.051 -18.305,33.727001 v 0.01 c -0.01,0.011 -0.011,0.021 -0.017,0.031 -0.137,0.203 -0.412,0.257 -0.615,0.122 z m 15.942,17.624 c -1.052,-1.759 -2.183,-3.449 -3.388,-5.069 l -0.011,-0.015 c 0,0 -0.01,-0.01 -0.01,-0.01 -0.136,-0.203 -0.081,-0.478 0.122,-0.614 l 0.038,-0.024 v 0 l 33.669,-18.398001 0.05,0.075 -29.819,24.155001 h -0.01 c -0.01,0.01 -0.019,0.014 -0.029,0.022 -0.203,0.135 -0.478,0.08 -0.614,-0.123 z m 5.095,10.798 c -0.689,-1.93 -1.469,-3.809 -2.334,-5.632 l -0.01,-0.018 c -0.001,0 0,-0.01 0,-0.01 -0.094,-0.225 0.014,-0.484 0.24,-0.578 0.014,-0.01 0.028,-0.01 0.042,-0.015 h -0.01 l 36.613,-11.476 0.034,0.084 -33.958,17.872 h -0.01 c -0.012,0.01 -0.021,0.01 -0.033,0.016 -0.226,0.092 -0.485,-0.015 -0.578,-0.241 z m 2.889,11.584 c -0.298,-2.027 -0.697,-4.021 -1.19,-5.979 l -0.01,-0.018 c 0,0 -10e-4,-0.01 0,-0.011 -0.048,-0.239 0.108,-0.473 0.348,-0.521 0.015,0 0.03,0 0.045,-0.01 v 0 l 38.147,-4.111 0.018,0.088 -36.793,10.904 h -0.01 c -0.012,0 -0.022,0.01 -0.034,0.01 -0.239,0.048 -0.473,-0.108 -0.521,-0.349 z m -1.19,23.735 c 0.501,-1.987 0.895,-3.982 1.189,-5.98 v -0.019 c 0,0 0.001,-0.01 0.001,-0.011 0.048,-0.24 0.282,-0.395 0.522,-0.347 0.014,0 0.029,0.01 0.044,0.01 h -0.01 l 36.816,10.801 -0.017,0.088 -38.165,-4.007 h -0.01 c -0.012,-0.001 -0.023,0 -0.035,-0.01 -0.24,-0.047 -0.396,-0.281 -0.348,-0.52 z m -4.033,11.237 c 0.878,-1.851 1.655,-3.731 2.332,-5.633 l 0.01,-0.018 c 0.001,0 0,-0.01 0,-0.01 0.093,-0.226 0.352,-0.333 0.578,-0.24 0.014,0.01 0.028,0.013 0.041,0.019 v 0 l 34.002,17.776 -0.035,0.083 -36.65,-11.376 h -0.01 c -0.011,0 -0.022,-0.01 -0.034,-0.012 -0.225,-0.093 -0.333,-0.353 -0.239,-0.579 z m -6.149,10.235 c 1.223,-1.644 2.351,-3.336 3.386,-5.07 l 0.01,-0.017 c 0.001,0 0,-0.01 0.01,-0.01 0.136,-0.203 0.411,-0.258 0.614,-0.122 0.013,0.01 0.025,0.017 0.036,0.027 v 0 l 29.881,24.069 -0.05,0.075 -33.726,-18.309 h -0.01 c -0.011,-0.01 -0.021,-0.011 -0.031,-0.018 -0.203,-0.136 -0.257,-0.41 -0.122,-0.614 z m -17.625,15.94 c 1.758,-1.051 3.449,-2.183 5.069,-3.387 l 0.014,-0.012 c 0,0 0.01,0 0.01,-0.01 0.203,-0.136 0.479,-0.08 0.614,0.123 0.01,0.013 0.017,0.025 0.024,0.038 v 0 l 18.394,33.672 -0.075,0.05 -24.151,-29.823 v 0 c -0.01,-0.01 -0.015,-0.019 -0.022,-0.029 -0.135,-0.203 -0.081,-0.478 0.123,-0.614 z m -10.799,5.094 c 1.93,-0.689 3.809,-1.468 5.632,-2.334 l 0.017,-0.01 c 0,0 0.01,0 0.01,-0.01 0.226,-0.094 0.485,0.014 0.579,0.24 0.01,0.014 0.011,0.029 0.014,0.042 v 0 l 11.473,36.613 -0.084,0.034 -17.869,-33.961 v -0.01 c -0.01,-0.01 -0.01,-0.02 -0.015,-0.032 -0.093,-0.226 0.014,-0.484 0.24,-0.578 z m -11.585,2.888 c 2.027,-0.298 4.022,-0.697 5.979,-1.19 l 0.019,-0.01 c 0,-10e-4 0.01,-10e-4 0.01,0 0.24,-0.048 0.473,0.109 0.521,0.348 0,0.015 0.01,0.03 0.01,0.045 l -0.001,-0.01 4.107,38.148 -0.088,0.017 -10.9,-36.794 v -0.01 c 0,-0.011 -0.01,-0.022 -0.01,-0.035 -0.048,-0.239 0.108,-0.473 0.349,-0.52 z M 190.776,26.041079 c 0,4.012 0.183,4.449 2.689,4.451 0.402,0 0.805,0.203 0.804,0.407 0,0.876 -0.031,0.943 -0.556,0.942 -1.796,-0.001 -3.56,-0.137 -5.355,-0.138 -1.795,-10e-4 -3.558,0.133 -5.353,0.131 -0.527,0 -0.557,-0.066 -0.556,-0.943 0,-0.202 0.403,-0.405 0.805,-0.405 2.506,0 2.692,-0.436 2.694,-4.447 l 0.01,-11.596 c 0,-4.921 -0.059,-5.36 -2.287,-5.361 -0.959,-10e-4 -1.051,-0.068 -1.051,-0.911 0,-0.304 0.093,-0.437 0.402,-0.437 1.795,10e-4 3.559,0.069 5.354,0.07 1.795,0.001 3.559,-0.066 5.354,-0.065 0.309,0 0.402,0.135 0.402,0.439 0,0.843 -0.094,0.91 -1.053,0.909 -2.228,-10e-4 -2.29,0.437 -2.293,5.358 v 4.213 c 0.464,10e-4 0.866,10e-4 1.579,-0.908 3.964,-5.155 5.76,-7.244 5.761,-8.187 0,-0.304 -0.309,-0.473 -0.495,-0.473 -1.361,-10e-4 -1.455,-10e-4 -1.454,-0.675 0,-0.337 -0.03,-0.675 0.372,-0.674 1.856,0.001 3.682,0.07 5.539,0.071 1.795,0.001 3.62,-0.066 5.415,-0.064 0.402,0 0.371,0.202 0.371,0.809 0,0.371 0,0.539 -0.897,0.539 -1.362,-10e-4 -1.889,0.032 -4.645,3.537 -0.773,1.011 -7.123,8.928 -7.123,9.062 0,0.102 0.588,0.777 0.619,0.81 4.422,4.722 6.03,6.712 6.958,7.285 0.836,0.506 1.795,0.709 2.104,0.709 0.836,0.001 0.836,0.203 0.836,0.641 0,0.304 -0.001,0.708 -0.404,0.708 -2.258,-10e-4 -3.558,-0.137 -4.209,-0.137 -0.525,-0.001 -1.732,0.133 -3.186,0.132 -0.402,0 -0.402,-0.27 -0.402,-0.64 0,-0.573 0.062,-0.675 0.588,-0.708 1.764,-0.099 1.795,-0.436 1.795,-0.976 0,-0.27 -0.463,-1.045 -1.978,-2.732 l -5.288,-5.902 c -0.805,-0.876 -1.083,-0.877 -1.857,-0.877 z m -22.781,8.886 c 0.185,0.27 2.412,3.642 2.412,3.642 1.205,1.753 1.576,1.788 2.258,1.822 0.773,0.034 2.32,0.101 2.321,-0.471 0,-0.573 -4.051,-3.946 -5.537,-4.992 -0.185,-0.135 -1.639,-0.305 -1.454,-10e-4 m -3.115,-17.665 c -0.588,0 -0.681,0.201 -0.681,0.269 -0.001,0.843 2.533,7.148 2.965,8.429 l 3.101,-8.695 z m 5.942,-1.514 c 0.248,-0.943 2.046,-5.156 2.046,-5.83 0.001,-0.842 -0.557,-0.843 -1.391,-0.844 -1.269,-10e-4 -1.3,-0.101 -1.3,-0.742 0.001,-0.404 0.092,-0.606 0.341,-0.606 0.216,0 1.516,0.068 4.951,0.07 1.672,0.001 3.435,-0.065 5.168,-0.063 0.402,0 0.372,0.403 0.371,0.707 0,0.337 0,0.64 -0.495,0.64 -1.671,0 -1.951,0.269 -2.756,2.055 -1.488,3.336 -6.385,16.682 -7.842,20.692 -0.123,0.303 -0.247,0.405 -0.866,0.405 -0.186,-10e-4 -0.712,-0.035 -0.805,-0.238 -0.277,-0.573 -3.8,-9.238 -5.036,-13.384 -0.679,-2.259 -1.544,-4.485 -2.409,-6.643 -0.649,-1.652 -0.988,-2.865 -2.01,-2.9 -0.898,-0.034 -1.114,-0.135 -1.113,-0.776 0,-0.404 0.154,-0.573 0.341,-0.572 1.051,0 2.133,0.068 3.187,0.068 1.206,10e-4 2.413,-0.065 3.62,-0.064 0.433,0 0.433,0.337 0.433,0.707 0,0.54 -0.124,0.641 -1.734,0.64 -1.268,0 -1.64,0.673 -1.64,1.347 -0.001,1.079 1.204,4.148 1.668,5.125 0.093,0.202 0.278,0.202 0.525,0.202 z m -31.547,15.925 c -1.547,-0.001 -1.857,0.808 -2.259,0.808 -0.433,-10e-4 -0.587,-0.338 -0.619,-0.709 -0.061,-0.708 -1.512,-5.024 -1.512,-5.596 0,-0.371 0.248,-0.439 0.557,-0.439 0.371,0 0.495,0.102 0.711,0.473 1.732,2.799 3.093,4.114 6.961,4.116 2.197,0.001 2.197,-0.032 2.198,-2.324 l 0.01,-13.585 c 0,-4.921 -0.058,-5.359 -2.287,-5.361 -0.959,0 -1.051,-0.068 -1.051,-0.91 0,-0.304 0.093,-0.439 0.402,-0.438 1.796,0.001 3.559,0.069 5.354,0.069 1.795,0 3.559,-0.064 5.354,-0.063 0.309,0 0.402,0.135 0.402,0.438 0,0.843 -0.093,0.911 -1.053,0.911 -2.228,0 -2.29,0.436 -2.293,5.357 l -0.01,13.585 c 0,2.292 0,2.326 2.008,2.327 4.333,0 5.386,-1.109 7.12,-4.108 0.217,-0.37 0.28,-0.405 0.682,-0.405 0.186,0 0.588,0 0.588,0.304 0,0.404 -1.427,5.426 -1.52,5.999 -0.063,0.338 -0.186,0.506 -0.527,0.506 -0.495,0 -0.835,-0.944 -1.546,-0.945 z m -13.904,-17.269 c 0,-4.92 -0.059,-5.359 -2.287,-5.36 -0.959,-10e-4 -1.052,-0.068 -1.052,-0.911 0,-0.304 0.093,-0.438 0.403,-0.438 1.795,0.001 3.558,0.07 5.353,0.071 1.796,10e-4 3.559,-0.065 5.355,-0.065 0.308,0 0.402,0.135 0.402,0.44 -10e-4,0.842 -0.094,0.909 -1.053,0.908 -2.228,-0.001 -2.29,0.437 -2.293,5.358 l -0.01,11.597 c 0,4.011 0.183,4.449 2.69,4.451 0.402,0 0.805,0.202 0.805,0.405 -0.001,0.876 -0.032,0.944 -0.558,0.943 -1.795,0 -3.56,-0.137 -5.354,-0.138 -1.795,-10e-4 -3.559,0.133 -5.354,0.132 -0.526,0 -0.557,-0.067 -0.556,-0.943 0,-0.203 0.403,-0.406 0.805,-0.405 2.507,10e-4 2.692,-0.437 2.695,-4.448 z m -28.230997,1.097 c 0,-4.383 3.005997,-8.258 9.256997,-8.254 4.24,0 8.261,1.994 9.372,7.322 0.309,1.416 0.43,4.112 0.581,13.011 0.029,2.528 1.483,2.799 2.288,2.866 0.68,0.035 1.051,0.102 1.051,0.473 0,0.607 -10e-4,0.877 -0.402,0.876 -1.424,-0.001 -2.909,-0.137 -3.961,-0.137 -1.269,-0.001 -2.91,0.133 -3.9,0.133 -0.403,0 -0.463,-0.27 -0.463,-0.742 0,-0.506 0.65,-0.606 0.929,-0.605 1.98,0 3.063,0 3.066,-5.562 v -5.933 c 0,-6.134 -2.253,-9.236 -6.369,-9.239 -1.702,-0.001 -6.622,0.131 -6.627,7.884 v 8.393 c 0,4.011 0.183,4.45 2.689,4.452 0.403,0 0.805,0.202 0.805,0.404 -0.001,0.877 -0.032,0.944 -0.559,0.944 -1.794,0 -3.558,-0.137 -5.352997,-0.138 -1.795,-0.001 -3.559,0.132 -5.353,0.131 -0.526,-0.001 -0.557,-0.067 -0.556,-0.944 0,-0.202 0.402,-0.404 0.804,-0.404 2.507,0 2.693,-0.436 2.695,-4.447 z m -7.568,15.266 c -0.032,1.078 -0.124,1.247 -0.372,1.246 -0.34,0 -0.587,-0.641 -0.928,-0.641 -0.216,0 -0.866,0.168 -1.764,0.37 -0.866,0.168 -2.011,0.369 -3.218,0.368 -4.147,0 -7.271,-2.801 -7.268,-7.319 0,-7.617 10.122,-6.229 10.126,-12.466 0,-2.224 -1.545,-3.742 -3.835,-3.744 -2.877,-0.001 -4.581,1.784 -5.48,4.413 -0.186,0.607 -0.248,0.876 -0.619,0.876 -0.588,0 -0.712,-0.034 -0.711,-0.202 0,-1.146 0.312,-4.619 0.405,-5.495 0.062,-0.472 0.31,-0.505 0.65,-0.505 2.414,0 3.869,-0.436 5.973,-0.434 5.446,0 8.198,3.274 8.196,7.084 -10e-4,2.123 -0.652,3.976 -2.293,5.358 -3.623,3.064 -8.389,3.769 -8.39,7.141 0,2.292 1.545,3.944 3.649,3.946 4.363,0 4.861,-5.155 5.418,-5.154 0.526,0 0.898,0.101 0.898,0.438 0,0.135 -0.373,1.989 -0.437,4.72 m -34.408,0.855 c -1.919,-10e-4 -1.641,1.415 -2.229,1.414 -0.34,0 -0.433,-0.1 -0.68,-1.449 -0.154,-0.81 -1.513,-6.001 -1.513,-6.17 0.001,-0.269 0.403,-0.303 0.558,-0.303 0.371,0 0.588,0.136 0.68,0.337 1.669,3.811 3.371,4.655 6.991,4.657 h 4.704 c 0.68,0 0.618,0 0.681,-0.067 0,-0.201 0,-0.606 -2.164,-3.709 -12.027,-17.333 -12.522,-18.042 -12.522,-18.345 0,-0.337 0.155,-0.404 0.371,-0.404 0.65,0.001 1.826,0.136 6.221,0.139 l 12.81,0.01 c 0.527,0 0.681,0 0.836,0.471 0.988,2.968 1.854,5.429 1.854,5.496 -0.001,0.169 -0.218,0.27 -0.465,0.27 -0.464,-0.001 -0.588,-0.102 -0.712,-0.271 -2.782,-3.878 -3.556,-4.451 -7.393,-4.453 h -6.313 c -0.248,-0.001 -0.34,-0.001 -0.34,0.134 0,0.304 0.309,0.742 2.411,3.811 6.277,9.038 12.058,18.008 12.058,18.041 0,0.203 -0.031,0.405 -0.186,0.404 z m -25.505,-17.273 c 0,-4.922 -0.058,-5.361 -2.286,-5.362 -0.96,-10e-4 -1.053,-0.068 -1.052,-0.911 0,-0.303 0.093,-0.437 0.403,-0.437 0.371,0 0.649,0.067 4.61,0.07 11.883,0.01 12.502,-0.06 13.059,-0.059 0.804,0.001 0.897,0.001 1.083,0.505 0.648,1.72 1.668,4.585 1.668,4.788 0,0.236 -0.186,0.236 -0.681,0.235 -0.557,0 -0.681,-0.27 -2.443,-2.934 -0.526,-0.775 -1.516,-1.248 -2.072,-1.248 -7.458,-0.01 -7.458,0.131 -7.459,1.344 l -0.01,8.697 h 1.053 c 3.651,0 3.899,-0.435 4.365,-3.368 0.124,-0.708 0.156,-0.741 0.372,-0.741 0.588,0 0.867,0.034 0.867,0.304 -0.001,1.483 -0.095,2.932 -0.096,4.483 0,3.067 0.09,4.045 0.09,4.383 0,0.37 -0.186,0.403 -0.681,0.403 -0.495,0 -0.558,-0.203 -0.681,-0.977 -0.4,-2.395 -0.864,-3.136 -3.278,-3.137 h -2.011 l -0.01,7.787 c -10e-4,2.057 0.092,2.057 3.093,2.059 2.569,0 2.661,-0.034 3.59,-0.537 1.146,-0.641 2.074,-1.921 2.508,-2.46 0.682,-0.91 0.682,-0.944 1.146,-0.944 0.464,0 0.649,0 0.649,0.304 0,0.506 -1.363,4.415 -1.363,4.92 -10e-4,0.136 -0.187,0.236 -0.311,0.236 -0.959,0 -2.32,-0.136 -12.315,-0.141 -1.919,0 -3.961,0.131 -4.766,0.131 -0.526,-0.001 -0.557,-0.067 -0.557,-0.944 0,-0.202 0.403,-0.404 0.805,-0.404 2.507,0 2.692,-0.437 2.695,-4.448 z m -10.306,11.59 c 0,4.011 0.184,4.45 2.381,4.451 0.402,0 0.65,0.202 0.649,0.405 0,0.876 -0.031,0.943 -0.403,0.943 -1.485,-10e-4 -3.249,-0.137 -5.044,-0.137 -1.794,0 -3.558,0.132 -5.353,0.131 -0.526,0 -0.557,-0.068 -0.557,-0.945 0.001,-0.202 0.403,-0.403 0.805,-0.403 2.507,0.001 2.692,-0.437 2.695,-4.448 l 0.012,-19.349 c 10e-4,-1.921 -0.369,-3.81 -1.391,-3.81 -1.702,0 -1.92,2.426 -4.0860003,2.425 -1.083,-0.001 -1.887,-1.147 -1.886,-2.26 10e-4,-1.888 1.549,-2.39299998 3.1270003,-2.39199998 2.538,0 5.847,1.79099998 7.64,5.36499998 1.175,2.361 1.421,4.653 1.418,8.428 z M 117.644,104.46408 c 1.062,1.675 9.62,15.348 9.62,15.348 0,0 -0.534,-0.823 0,0.001 0.634,0.979 1.67,1.974 3.023,1.197 v 0 c 0.218,-0.125 0.493,-0.15 0.551,-0.052 v 0.001 c 0.22,0.38 0.248,0.461 0.062,0.584 -0.026,0.018 -0.057,0.037 -0.092,0.058 -0.971,0.559 -2.408,1.301 -3.377,1.861 -0.97,0.56 -2.332,1.434 -3.3,1.993 v 0.001 c -0.28,0.162 -0.319,0.14 -0.565,-0.284 0,0 0,-0.01 -0.01,-0.01 v -0.001 c -0.057,-0.099 0.102,-0.325 0.32,-0.45 10e-4,-10e-4 0,0 0,0 1.335,-0.775 1.064,-2.128 0.477,-3.213 -0.587,-1.085 0,0 0,-0.01 0,0 -7.567,-14.313 -8.481,-16.004 -0.914,-1.694 -1.006,-3.784 -1.006,-3.784 0,0 1.74,1.138 2.773,2.763 m -18.420997,0.966 c -0.92,1.758 -8.482,16.005 -8.482,16.005 0,0 0.445,-0.873 -10e-4,0 -0.53,1.039 -0.874,2.433 0.476,3.216 0,0 0,0 0,0 0.217,0.126 0.377,0.352 0.32,0.452 l -0.001,0.001 c -0.22,0.379 -0.275,0.445 -0.475,0.345 -0.029,-0.014 -0.06,-0.031 -0.096,-0.052 -0.97,-0.56 -2.33,-1.434 -3.301,-1.994 -0.969,-0.56 -2.406,-1.301 -3.376,-1.861 h -0.001 c -0.28,-0.161 -0.28,-0.206 -0.036,-0.632 0,0 0,-0.01 0,-0.01 v -0.001 c 0.057,-0.099 0.333,-0.074 0.55,0.052 0.001,0 0,0 0,0 1.34,0.769 2.375,-0.141 3.022,-1.192 0.645,-1.051 0.001,0 0,-0.01 0,0 8.612,-13.71 9.62,-15.348 1.009,-1.638 2.772997,-2.762 2.772997,-2.762 0,0 -0.115,2.076 -1.005997,3.782 m 9.426997,3.109 c 0.083,1.983 0.658,18.102 0.658,18.102 0,0 -0.051,-0.979 0,0.001 0.06,1.165 0.459,2.544 2.02,2.549 v 0 c 0.251,0 0.503,0.115 0.503,0.23 v 0.001 c 0,0.438 -0.017,0.523 -0.238,0.537 -0.034,0 -0.069,0 -0.11,0 -1.12,0 -2.735,-0.076 -3.855,-0.076 -1.119,0 -2.736,0.076 -3.855,0.076 h -0.001 c -0.324,0 -0.346,-0.038 -0.347,-0.528 v -0.011 -0.001 c 0,-0.115 0.251,-0.23 0.502,-0.23 v 0 c 1.543,0 1.985,-1.311 2.019,-2.544 0.034,-1.233 0,0 0,-0.01 0,0 0.604,-16.18 0.658,-18.102 0.054,-1.923 1.02,-3.779 1.02,-3.779 0,0 0.938,1.856 1.019,3.779 m 9.516,88.15 c 0,0.361 -0.043,0.383 -0.597,0.383 -0.127,0 -0.255,-0.276 -0.255,-0.553 0,-1.724 -1.096,-2.349 -10.419,-2.349 0,1.215 0.131,9.32 0.131,9.32 v 0 c 0,0.001 0.128,2.806 1.848,2.81 v 0 c 0.277,0 0.553,0.128 0.553,0.255 0,0.484 -0.016,0.577 -0.263,0.593 -0.035,0 -0.074,0 -0.119,0 -1.235,0 -2.447,-0.085 -3.683,-0.085 -1.234,0 -2.447,0.085 -3.681,0.085 h -0.001 c -0.358,0 -0.382,-0.043 -0.383,-0.583 v -0.013 c 0,-0.127 0.277,-0.255 0.553,-0.255 v 0 c 1.703,0 1.845,-2.746 1.848,-2.805 v -0.01 c 0,0 0.13,-8.583 0.13,-9.32 -8.482997,0 -10.417997,0.623 -10.417997,2.348 0,0.276 -0.128,0.553 -0.255,0.553 -0.554,0 -0.596,-0.021 -0.596,-0.382 0,-1.235 0.085,-2.448 0.085,-3.682 0,-1.235 -0.085,-2.448 -0.085,-3.683 0,-0.361 0.042,-0.383 0.596,-0.383 0.127,0 0.255,0.277 0.255,0.553 0,1.725 1.673,2.35 10.449997,2.35 0,-0.383 0.433,-29.99 0.433,-29.99 h 2.13 c 0,0 0.433,29.639 0.433,29.991 8.812,0 10.45,-0.625 10.45,-2.35 0,-0.276 0.128,-0.552 0.255,-0.552 0.554,0 0.597,0.02 0.597,0.381 0,1.235 -0.085,2.448 -0.085,3.683 0,1.234 0.085,2.447 0.085,3.682 m 33.787,-46.797 c 0,-4.469 -2.682,-7.709 -7.766,-7.709 -5.754,0 -8.548,3.911 -9.833,8.324 -0.112,0.56 -0.168,0.727 -0.615,0.727 -0.67,0 -1.117,-0.113 -1.117,-0.56 0,-0.279 0.392,-2.514 0.782,-8.491 0.056,-0.56 0.113,-0.615 0.503,-0.671 2.403,-0.336 5.811,-0.782 9.833,-0.782 7.598,0 13.52,3.409 13.52,11.621 0,8.38 -8.547,10.168 -14.973,14.246 -2.066,1.341 -4.357,2.962 -4.357,6.704 0,4.358 3.464,7.095 7.375,7.095 5.306,0 7.597,-4.245 9.162,-8.603 0.112,-0.336 0.336,-0.336 0.95,-0.336 0.278,0 0.559,0.279 0.559,0.559 0,0.391 -0.839,4.749 -0.839,9.106 0,0.447 -0.167,0.727 -0.503,0.727 -0.447,0 -0.894,-1.005 -1.508,-1.005 -1.285,0 -3.575,1.005 -7.542,1.005 -8.269,0 -12.18,-5.476 -12.18,-11.341 0,-5.866 3.856,-7.989 8.492,-10.448 7.822,-4.134 10.057,-5.977 10.057,-10.168 m -35.496,10.783 v -6.314 c 0,-2.402 -0.057,-6.033 -0.168,-8.827 -0.056,-1.508 -0.391,-2.458 -4.805,-2.458 -1.564,0 -1.564,-0.336 -1.564,-0.949 0,-0.504 0,-0.726 0.447,-0.726 0.392,0 0.614,0.111 8.883,0.111 8.213,0 8.436,-0.111 8.827,-0.111 0.446,0 0.446,0.222 0.446,0.726 0,0.613 0,0.949 -1.563,0.949 -4.413,0 -4.748,0.95 -4.805,2.458 -0.111,2.794 -0.167,6.425 -0.167,8.827 v 13.688 c 0,3.967 0.056,5.308 0.112,7.878 0.055,3.296 1.005,3.743 5.866,3.743 0.614,0 0.614,0.447 0.614,0.949 0,0.336 -0.112,0.727 -0.503,0.727 -0.446,0 -5.308,-0.224 -8.827,-0.224 -3.575,0 -8.436,0.224 -8.883,0.224 -0.391,0 -0.503,-0.391 -0.503,-0.727 0,-0.502 0,-0.949 0.614,-0.949 4.862,0 5.811,-0.447 5.868,-3.743 0.054,-2.57 0.111,-3.911 0.111,-7.878 v -5.539 H 94.243003 v 5.539 c 0,3.967 0.056,5.308 0.112,7.878 0.056,3.296 1.005,3.743 5.865997,3.743 0.614,0 0.614,0.447 0.614,0.949 0,0.336 -0.111,0.727 -0.503,0.727 -0.445997,0 -5.306997,-0.224 -8.882997,-0.224 -3.519,0 -8.38,0.224 -8.827,0.224 -0.39,0 -0.502,-0.391 -0.502,-0.727 0,-0.502 0,-0.949 0.614,-0.949 4.861,0 5.81,-0.447 5.867,-3.743 0.055,-2.57 0.111,-3.911 0.111,-7.878 v -13.688 c 0,-2.402 -0.056,-6.033 -0.168,-8.827 -0.056,-1.508 -0.391,-2.458 -4.804,-2.458 -1.565,0 -1.565,-0.336 -1.565,-0.949 0,-0.504 0,-0.726 0.447,-0.726 0.392,0 0.615,0.111 8.827,0.111 8.269,0 8.493,-0.111 8.882997,-0.111 0.447,0 0.447,0.222 0.447,0.726 0,0.613 0,0.949 -1.563997,0.949 -4.413,0 -4.749,0.95 -4.804,2.458 -0.112,2.794 -0.168,6.425 -0.168,8.827 v 6.314 z m -50.153997,-6.314 c 0,-2.402 -0.056,-6.033 -0.168,-8.827 -0.055,-1.508 -0.391,-2.458 -4.804,-2.458 -1.564,0 -1.564,-0.336 -1.564,-0.949 0,-0.504 0,-0.726 0.447,-0.726 0.39,0 0.614,0.111 8.827,0.111 8.268,0 8.491,-0.111 8.883,-0.111 0.447,0 0.447,0.222 0.447,0.726 0,0.613 0,0.949 -1.565,0.949 -4.413,0 -4.748,0.95 -4.804,2.458 -0.112,2.794 -0.168,6.425 -0.168,8.827 v 13.688 c 0,3.967 0.056,5.308 0.112,7.878 0.056,3.296 1.006,3.743 5.866,3.743 0.615,0 0.615,0.447 0.615,0.949 0,0.336 -0.112,0.727 -0.503,0.727 -0.447,0 -5.308,-0.224 -8.883,-0.224 -3.52,0 -8.381,0.224 -8.827,0.224 -0.392,0 -0.503,-0.391 -0.503,-0.727 0,-0.502 0,-0.949 0.614,-0.949 4.861,0 5.81,-0.447 5.866,-3.743 0.056,-2.57 0.112,-3.911 0.112,-7.878 z m -4.816,39.507 c 0.173,-0.125 0.417,-0.109 0.573,0.046 0.01,0.01 0.018,0.02 0.027,0.03 l 0.031,0.038 c 0.832,0.945 1.698,1.872 2.599,2.777 0.932,0.937 1.887,1.837 2.864,2.7 l 0.018,0.014 c 0.01,0.01 0.016,0.013 0.023,0.021 0.173,0.173 0.173,0.453 0,0.626 -0.028,0.028 -0.058,0.051 -0.09,0.07 l -0.012,0.01 c -3.65,1.94 -7.33,4.028 -10.264,7.111 -1.339,1.407 -2.423,3.048 -3.472,4.635 -1.432,2.165 -2.783,4.211 -4.739,5.753 -1.685,1.33 -3.747,2.152 -5.741,2.947 -2.209,0.882 -4.494,1.793 -6.375,3.406 -1.679,1.441 -2.984,3.085 -4.245,4.674 -0.472,0.595 -0.938,1.18 -1.415,1.749 l -0.055,-0.055 c 0.468,-0.796 0.902,-1.601 1.331,-2.399 0.938,-1.745 1.909,-3.55 3.2,-5.193 1.397,-1.776 3.296,-2.938 5.307,-4.168 1.786,-1.092 3.633,-2.221 5.092,-3.823 1.917,-2.104 3.047,-4.726 4.14,-7.263 0.73,-1.691 1.485,-3.441 2.457,-4.981 2.153,-3.409 5.061,-5.989 8.735,-8.709 z m -14.946,-44.44 c 0.211,0.033 0.373,0.217 0.373,0.437 0,0.014 -0.001,0.027 0,0.039 v 0.049 c -0.08,1.258 -0.123,2.526 -0.126,3.802 0,1.322 0.036,2.634 0.116,3.935 v 0.022 c 0.001,0.011 0.001,0.021 0.001,0.031 0,0.245 -0.198,0.444 -0.443,0.444 -0.039,0 -0.076,-0.01 -0.112,-0.015 h -0.013 c -3.952,-1.209 -8.03,-2.336 -12.286,-2.229 -1.941,0.048 -3.868,0.441 -5.732,0.822 -2.543,0.518 -4.945,1.01 -7.419,0.717 -2.131,-0.252 -4.171,-1.128 -6.143,-1.976 -2.186,-0.938 -4.445,-1.91 -6.9170003,-2.099 -2.206,-0.168 -4.29,0.072 -6.306,0.303 -0.75500001,0.087 -1.49800001,0.171 -2.23800001,0.236 v -0.078 c 0.894,-0.232 1.77100001,-0.494 2.63900001,-0.754 1.897,-0.571 3.859,-1.162 5.933,-1.41 2.2450003,-0.267 4.4090003,0.253 6.7000003,0.805 2.036,0.491 4.141,0.998 6.304,0.898 2.844,-0.133 5.498,-1.188 8.064,-2.208 1.712,-0.68 3.483,-1.383 5.259,-1.785 3.934,-0.887 7.814,-0.657 12.334,0.018 z m 20.856,-41.993 c 0.125,0.173 0.11,0.417 -0.046,0.573 -0.01,0.01 -0.02,0.019 -0.029,0.026 l -0.038,0.032 c -0.945,0.832 -1.872,1.698 -2.777,2.598 -0.938,0.933 -1.837,1.889 -2.7,2.865 l -0.014,0.018 c -0.01,0.01 -0.014,0.016 -0.022,0.022 -0.172,0.173 -0.453,0.174 -0.626,0 -0.027,-0.027 -0.05,-0.057 -0.069,-0.088 l -0.01,-0.013 c -1.939,-3.65 -4.026,-7.33 -7.111,-10.265 -1.407,-1.338 -3.047,-2.423 -4.634,-3.471001 -2.165,-1.432 -4.211,-2.784 -5.753,-4.74 -1.329,-1.684 -2.152,-3.746 -2.947,-5.74 -0.882,-2.21 -1.793,-4.494 -3.406,-6.375 -1.442,-1.68 -3.085,-2.984 -4.675,-4.245 -0.594,-0.472 -1.179,-0.938 -1.748,-1.416 l 0.055,-0.054 c 0.796,0.467 1.602,0.903 2.399,1.331 1.746,0.939 3.55,1.909 5.192,3.2 1.777,1.397 2.939,3.296 4.168,5.306 1.093,1.787 2.222,3.634 3.824,5.092 2.105,1.917 4.727,3.048 7.262,4.141 1.692,0.73 3.442,1.484 4.982,2.457 3.409,2.154001 5.989,5.060001 8.709,8.734001 z M 111.804,92.464079 c -0.033,0.211 -0.217,0.373 -0.438,0.373 -0.013,0 -0.026,-0.001 -0.039,-0.001 h -0.049 c -1.257,-0.081 -2.525,-0.124 -3.801,-0.127 -1.323,0 -2.634,0.036 -3.935,0.116 h -0.022 c -0.011,0 -0.021,0 -0.032,0 -0.245,0 -0.443,-0.198 -0.443,-0.443 0,-0.039 0,-0.076 0.015,-0.112 l 0.01,-0.013 c 1.209,-3.953 2.336,-8.031 2.229,-12.286 -0.048,-1.941 -0.442,-3.868 -0.822,-5.732 -0.519,-2.543 -1.009,-4.945 -0.717,-7.419 0.252,-2.132 1.128,-4.171 1.976,-6.144 0.939,-2.185 1.91,-4.445 2.099,-6.916 0.168,-2.206 -0.072,-4.291 -0.303,-6.306 -0.087,-0.755 -0.171,-1.497 -0.236,-2.238 h 0.077 c 0.233,0.894 0.494,1.771 0.755,2.638 0.571,1.898 1.161,3.859 1.409,5.934 0.268,2.245 -0.253,4.409 -0.805,6.7 -0.491,2.036 -0.998,4.14 -0.897,6.304 0.133,2.844 1.188,5.498 2.207,8.063 0.681,1.713 1.384,3.483 1.785,5.26 0.888,3.933 0.658,7.813 -0.017,12.335 z m 41.993,20.857001 c -0.173,0.126 -0.417,0.11 -0.573,-0.046 l -0.027,-0.029 -0.031,-0.037 c -0.832,-0.947 -1.698,-1.873 -2.598,-2.779 -0.933,-0.936 -1.889,-1.837 -2.865,-2.7 l -0.018,-0.013 c -0.01,-0.01 -0.016,-0.014 -0.023,-0.022 -0.173,-0.172 -0.173,-0.453 0,-0.626 0.028,-0.027 0.058,-0.05 0.089,-0.069 l 0.013,-0.01 c 3.65,-1.94 7.33,-4.027 10.264,-7.111001 1.338,-1.407 2.423,-3.047 3.472,-4.634 1.432,-2.165 2.783,-4.211 4.739,-5.753 1.686,-1.329 3.747,-2.152 5.742,-2.948 2.209,-0.88 4.493,-1.793 6.374,-3.406 1.679,-1.441 2.983,-3.084 4.246,-4.674 0.47,-0.594 0.937,-1.179 1.415,-1.748 l 0.054,0.054 c -0.467,0.797 -0.903,1.603 -1.332,2.399 -0.938,1.747 -1.908,3.55 -3.199,5.193 -1.397,1.776 -3.297,2.938 -5.306,4.168 -1.787,1.093 -3.634,2.222 -5.092,3.823 -1.917,2.105 -3.048,4.728 -4.142,7.263 -0.729,1.692001 -1.483,3.441001 -2.456,4.981001 -2.154,3.409 -5.06,5.989 -8.735,8.709 z m 14.946,44.44 c -0.211,-0.033 -0.373,-0.216 -0.373,-0.437 0,-0.013 0.001,-0.027 0,-0.039 v -0.049 c 0.081,-1.257 0.124,-2.525 0.127,-3.802 0,-1.322 -0.036,-2.634 -0.116,-3.934 v -0.022 c -0.001,-0.011 -0.001,-0.021 -0.001,-0.032 -0.001,-0.245 0.198,-0.443 0.442,-0.443 0.039,0 0.077,0.01 0.113,0.014 h 0.013 c 3.952,1.21 8.031,2.336 12.285,2.23 1.943,-0.048 3.87,-0.442 5.733,-0.823 2.543,-0.518 4.945,-1.009 7.419,-0.717 2.132,0.252 4.171,1.129 6.143,1.977 2.186,0.939 4.446,1.909 6.916,2.099 2.206,0.168 4.291,-0.072 6.307,-0.304 0.755,-0.087 1.498,-0.171 2.237,-0.235 v 0.077 c -0.893,0.232 -1.77,0.494 -2.637,0.755 -1.898,0.571 -3.86,1.161 -5.934,1.409 -2.245,0.268 -4.409,-0.253 -6.7,-0.805 -2.035,-0.491 -4.141,-0.998 -6.304,-0.897 -2.845,0.132 -5.498,1.187 -8.063,2.208 -1.713,0.679 -3.484,1.383 -5.26,1.785 -3.934,0.888 -7.814,0.656 -12.335,-0.019 z m -20.856,41.993 c -0.125,-0.172 -0.11,-0.416 0.046,-0.572 0.01,-0.01 0.019,-0.018 0.029,-0.027 l 0.037,-0.031 c 0.946,-0.832 1.873,-1.698 2.778,-2.599 0.937,-0.933 1.837,-1.888 2.701,-2.864 l 0.013,-0.018 c 0.01,-0.01 0.014,-0.015 0.022,-0.023 0.172,-0.173 0.453,-0.173 0.626,0 0.027,0.027 0.05,0.057 0.069,0.09 l 0.01,0.012 c 1.939,3.65 4.026,7.33 7.11,10.264 1.408,1.339 3.048,2.423 4.635,3.472 2.165,1.431 4.211,2.783 5.753,4.739 1.329,1.685 2.151,3.747 2.947,5.741 0.881,2.209 1.793,4.493 3.407,6.375 1.441,1.679 3.084,2.983 4.673,4.245 0.595,0.472 1.18,0.938 1.749,1.415 l -0.054,0.055 c -0.797,-0.468 -1.603,-0.902 -2.4,-1.331 -1.746,-0.939 -3.549,-1.908 -5.192,-3.2 -1.777,-1.398 -2.939,-3.296 -4.168,-5.307 -1.093,-1.786 -2.223,-3.633 -3.823,-5.092 -2.106,-1.917 -4.728,-3.048 -7.263,-4.14 -1.692,-0.73 -3.441,-1.485 -4.981,-2.457 -3.41,-2.154 -5.99,-5.061 -8.709,-8.735 z m -44.442,14.962 c -0.674,4.521 -0.905,8.401 -0.018,12.334 0.401,1.778 1.105,3.548 1.786,5.26 1.02,2.567 2.074,5.22 2.207,8.064 0.101,2.163 -0.406,4.268 -0.897,6.303 -0.552,2.291 -1.074,4.455 -0.805,6.701 0.248,2.074 0.838,4.036 1.409,5.933 0.261,0.867 0.523,1.745 0.755,2.639 h 0.077 c -0.064,-0.74 -0.148,-1.484 -0.235,-2.238 -0.232,-2.016 -0.472,-4.1 -0.304,-6.306 0.19,-2.472 1.16,-4.732 2.099,-6.917 0.847,-1.972 1.724,-4.012 1.976,-6.144 0.292,-2.472 -0.198,-4.875 -0.717,-7.419 -0.38,-1.863 -0.773,-3.79 -0.822,-5.731 -0.106,-4.256 1.02,-8.334 2.23,-12.286 l 0.01,-0.014 c 0.01,-0.035 0.013,-0.073 0.013,-0.112 0,-0.244 -0.197,-0.443 -0.442,-0.443 -0.011,0 -0.022,0.001 -0.032,0.001 h -0.022 c -1.301,0.08 -2.612,0.119 -3.934,0.116 -1.277,0 -2.545,-0.046 -3.802,-0.126 l -0.049,-0.01 c -0.013,-0.001 -0.026,0 -0.04,0 -0.22,0 -0.403,0.162 -0.437,0.373 z" /></g></svg>